# File created by Blade
# Date/Time:  Tue Apr 07 20:53:11 2015
# Frame Rate: 120.000 fps
#------------------------------------------------------
:FULLY-SPECIFIED
:DEGREES
1086
root 6.758059 32.608689 4.329952 10.078273 -43.777769 -360.283164
Spine -12.313251 7.657443 -3.417558
Head 14.593691 2.171069 -0.715320
LeftShoulder -27.084128 42.448388 14.503364
LeftArm 58.815492 -54.667738 -83.859896
LeftForeArm 5.317825 -0.000000 -0.351881
LeftHand 5.189381 -0.000000 11.619462
LeftHandThumb1 -26.253704 0.000000 33.147579
RightShoulder -3.677366 4.322501 -27.631711
RightArm 20.260955 6.726274 58.932612
RightForeArm -12.667925 -0.000000 3.797870
RightHand 7.646248 -0.000000 -2.492264
RightHandThumb1 -24.326973 -0.000000 -32.862282
LeftUpLeg -20.582872 -4.617153 -6.964747
LeftLeg 14.538501 -0.000000 -0.000000
LeftFoot -1.343239 7.078440 -7.382112
LeftToeBase -13.928742 -0.000000 0.000000
RightUpLeg -20.131063 -11.089925 4.602822
RightLeg 54.638723 -0.000000 -0.000000
RightFoot -3.413020 3.539396 21.871685
RightToeBase -20.280054 -0.000000 0.000000
1087
root 6.540784 32.630800 4.347792 10.184276 -42.526831 -360.538891
Spine -12.250117 7.224618 -3.089282
Head 14.356717 2.088903 -0.912050
LeftShoulder -26.993186 42.389963 14.470376
LeftArm 58.982771 -54.142119 -83.487813
LeftForeArm 5.512045 0.000000 -0.406497
LeftHand 5.263449 0.000000 11.363415
LeftHandThumb1 -26.253704 0.000000 33.147579
RightShoulder -3.840112 4.276867 -27.700101
RightArm 20.113224 6.809284 58.454303
RightForeArm -12.664298 -0.000000 3.439045
RightHand 7.579576 -0.000000 -2.469753
RightHandThumb1 -24.326973 -0.000000 -32.862282
LeftUpLeg -19.978443 -5.169390 -6.571379
LeftLeg 14.138404 -0.000000 -0.000000
LeftFoot -1.533199 7.029004 -6.856780
LeftToeBase -13.968564 -0.000000 0.000000
RightUpLeg -20.412656 -10.377701 4.355801
RightLeg 54.622258 -0.000000 -0.000000
RightFoot -5.078599 2.262140 21.200242
RightToeBase -19.679218 -0.000000 0.000000
1088
root 6.328387 32.659123 4.360809 10.354290 -41.223580 -360.811378
Spine -12.258521 6.784383 -2.742090
Head 14.162763 1.982599 -1.107000
LeftShoulder -26.820054 42.414706 14.445344
LeftArm 59.181540 -53.645020 -83.136703
LeftForeArm 5.743193 -0.000000 -0.415155
LeftHand 5.304544 -0.000000 11.059730
LeftHandThumb1 -26.253704 0.000000 33.147579
RightShoulder -3.964018 4.114052 -27.748846
RightArm 19.921038 7.067761 57.979010
RightForeArm -12.702043 -0.000000 3.216925
RightHand 7.484329 0.000000 -2.469959
RightHandThumb1 -24.326973 -0.000000 -32.862282
LeftUpLeg -19.439826 -5.840423 -6.111394
LeftLeg 13.690379 -0.000000 -0.000000
LeftFoot -1.633452 7.017419 -6.531626
LeftToeBase -13.972960 -0.000000 0.000000
RightUpLeg -20.676001 -9.634029 4.101031
RightLeg 54.305592 -0.000000 -0.000000
RightFoot -6.697113 0.794696 20.720172
RightToeBase -18.965649 -0.000000 0.000000
1089
root 6.111731 32.693415 4.378198 10.433848 -39.913138 -361.079234
Spine -12.201500 6.330576 -2.386969
Head 14.040788 1.859654 -1.271519
LeftShoulder -26.584282 42.421798 14.480014
LeftArm 59.174418 -53.111526 -82.580960
LeftForeArm 5.795174 -0.000000 -0.434840
LeftHand 5.373011 -0.000000 10.836616
LeftHandThumb1 -26.253704 0.000000 33.147579
RightShoulder -4.090781 3.952280 -27.755366
RightArm 19.711664 7.350666 57.507332
RightForeArm -12.803461 -0.000000 3.061975
RightHand 7.454414 -0.000000 -2.599919
RightHandThumb1 -24.326973 -0.000000 -32.862282
LeftUpLeg -18.860348 -6.316002 -5.696335
LeftLeg 13.318948 -0.000000 -0.000000
LeftFoot -1.645647 6.869171 -6.080285
LeftToeBase -14.077935 -0.000000 0.000000
RightUpLeg -20.743338 -8.934031 3.809082
RightLeg 53.665412 -0.000000 -0.000000
RightFoot -8.344877 -0.879434 19.647221
RightToeBase -17.336669 -0.000000 0.000000
1090
root 5.904921 32.730958 4.388762 10.581354 -38.534335 -361.305803
Spine -12.213279 5.833354 -2.082348
Head 13.831007 1.654093 -1.353796
LeftShoulder -26.401734 42.441014 14.514820
LeftArm 59.266789 -52.531137 -82.102408
LeftForeArm 5.982055 -0.000000 -0.400007
LeftHand 5.428193 -0.000000 10.488357
LeftHandThumb1 -26.253704 0.000000 33.147579
RightShoulder -4.267960 3.588865 -27.706330
RightArm 19.632628 7.766565 57.026012
RightForeArm -12.921310 -0.000000 2.967452
RightHand 7.438295 0.000000 -2.657188
RightHandThumb1 -24.326973 -0.000000 -32.862282
LeftUpLeg -18.406752 -6.886555 -5.276923
LeftLeg 12.933272 -0.000000 -0.000000
LeftFoot -1.634607 6.774408 -5.894440
LeftToeBase -14.017372 -0.000000 0.000000
RightUpLeg -20.840696 -8.263934 3.463369
RightLeg 52.755856 -0.000000 -0.000000
RightFoot -9.749159 -2.476782 19.348728
RightToeBase -16.215810 -0.000000 0.000000
1091
root 5.696993 32.771573 4.398112 10.713819 -37.122062 -361.505786
Spine -12.239043 5.311012 -1.811619
Head 13.637145 1.444403 -1.362055
LeftShoulder -26.137826 42.460435 14.628296
LeftArm 59.137412 -51.894979 -81.355714
LeftForeArm 5.982693 -0.000000 -0.432839
LeftHand 5.469173 -0.000000 10.237041
LeftHandThumb1 -26.253704 0.000000 33.147579
RightShoulder -4.480706 3.388314 -27.641884
RightArm 19.405107 8.062263 56.521222
RightForeArm -13.001289 0.000000 2.926561
RightHand 7.394970 -0.000000 -2.747750
RightHandThumb1 -24.326973 -0.000000 -32.862282
LeftUpLeg -17.966627 -7.402835 -4.842671
LeftLeg 12.550741 -0.000000 -0.000000
LeftFoot -1.514313 6.428703 -5.570659
LeftToeBase -14.147307 -0.000000 0.000000
RightUpLeg -20.843104 -7.615895 3.082264
RightLeg 51.538229 -0.000000 -0.000000
RightFoot -10.940023 -4.155761 19.167907
RightToeBase -16.032543 -0.000000 0.000000
1092
root 5.491721 32.811919 4.401184 10.816668 -35.669912 -361.679256
Spine -12.239974 4.748579 -1.572421
Head 13.431149 1.203985 -1.321427
LeftShoulder -25.840275 42.468400 14.818639
LeftArm 59.086920 -51.291467 -80.718922
LeftForeArm 6.062438 -0.000000 -0.491885
LeftHand 5.513119 -0.000000 10.033229
LeftHandThumb1 -26.253704 0.000000 33.147579
RightShoulder -4.664382 3.299171 -27.603589
RightArm 19.015324 8.364330 56.059828
RightForeArm -13.115499 -0.000000 2.968544
RightHand 7.282890 -0.000000 -2.627289
RightHandThumb1 -24.326973 -0.000000 -32.862282
LeftUpLeg -17.544067 -7.939639 -4.402009
LeftLeg 12.174464 -0.000000 -0.000000
LeftFoot -1.409228 6.055216 -5.471294
LeftToeBase -14.162844 -0.000000 0.000000
RightUpLeg -20.689128 -6.879625 2.670041
RightLeg 49.980687 -0.000000 -0.000000
RightFoot -12.174802 -5.952028 19.187766
RightToeBase -15.212700 -0.000000 0.000000
1093
root 5.295874 32.852163 4.402787 10.880029 -34.201520 -361.735684
Spine -12.261942 4.153370 -1.419638
Head 13.214763 0.937392 -1.283998
LeftShoulder -25.478953 42.435572 15.061457
LeftArm 58.894162 -50.716077 -79.958744
LeftForeArm 6.142344 -0.000000 -0.551880
LeftHand 5.576460 -0.000000 9.643637
LeftHandThumb1 -26.253704 0.000000 33.147579
RightShoulder -4.886222 3.216796 -27.593012
RightArm 18.666185 8.657758 55.650629
RightForeArm -13.325221 0.000000 2.962209
RightHand 7.364303 -0.000000 -2.904979
RightHandThumb1 -24.326973 -0.000000 -32.862282
LeftUpLeg -17.176738 -8.596830 -4.012778
LeftLeg 11.772614 -0.000000 -0.000000
LeftFoot -1.254940 5.674268 -5.487859
LeftToeBase -13.715446 -0.000000 0.000000
RightUpLeg -20.582506 -6.320103 2.134376
RightLeg 48.345518 -0.000000 -0.000000
RightFoot -13.086575 -7.958604 19.007574
RightToeBase -14.813746 -0.000000 0.000000
1094
root 5.102495 32.892911 4.403696 10.907341 -32.709637 -361.740736
Spine -12.273606 3.503873 -1.312751
Head 12.996820 0.713487 -1.196047
LeftShoulder -25.251541 42.627163 15.127521
LeftArm 59.139644 -50.206404 -79.449001
LeftForeArm 6.120437 -0.000000 -0.701125
LeftHand 5.606843 -0.000000 9.345615
LeftHandThumb1 -26.253704 0.000000 33.147579
RightShoulder -5.095810 3.141687 -27.598953
RightArm 18.314716 8.844587 55.257232
RightForeArm -13.564741 -0.000000 2.924419
RightHand 7.433437 -0.000000 -2.934641
RightHandThumb1 -24.326973 -0.000000 -32.862282
LeftUpLeg -16.804890 -9.271138 -3.642804
LeftLeg 11.333742 -0.000000 -0.000000
LeftFoot -1.020396 5.347326 -5.635705
LeftToeBase -14.165286 -0.000000 0.000000
RightUpLeg -20.414690 -5.869765 1.538272
RightLeg 46.581710 -0.000000 -0.000000
RightFoot -13.922824 -9.948606 18.989212
RightToeBase -14.239325 -0.000000 0.000000
1095
root 4.902807 32.934002 4.397206 10.975284 -31.190946 -361.790368
Spine -12.305982 2.803248 -1.172077
Head 12.797228 0.484052 -1.089358
LeftShoulder -24.926842 42.638233 15.349860
LeftArm 59.065617 -49.732801 -78.749772
LeftForeArm 6.249888 -0.000000 -0.825298
LeftHand 5.553836 -0.000000 9.103673
LeftHandThumb1 -26.253704 0.000000 33.147579
RightShoulder -5.260157 3.016786 -27.592969
RightArm 17.992762 9.068640 54.884507
RightForeArm -13.774664 -0.000000 2.936162
RightHand 7.533294 0.000000 -3.184295
RightHandThumb1 -24.326973 -0.000000 -32.862282
LeftUpLeg -16.539299 -9.867471 -3.212338
LeftLeg 11.024298 -0.000000 -0.000000
LeftFoot -0.767991 4.786979 -5.689272
LeftToeBase -14.475552 -0.000000 0.000000
RightUpLeg -20.168226 -5.403904 1.004635
RightLeg 44.603895 -0.000000 -0.000000
RightFoot -14.690231 -12.034220 18.731380
RightToeBase -13.495296 -0.000000 0.000000
1096
root 4.712027 32.976048 4.386750 11.111560 -29.740978 -361.815227
Spine -12.405542 2.178124 -1.074387
Head 12.552742 0.245533 -0.963636
LeftShoulder -24.550614 42.489551 15.671383
LeftArm 58.774818 -49.230498 -77.873622
LeftForeArm 6.327244 0.000000 -0.962109
LeftHand 5.541920 0.000000 8.802076
LeftHandThumb1 -26.253704 0.000000 33.147579
RightShoulder -5.480796 2.898803 -27.577063
RightArm 17.693147 9.197203 54.477909
RightForeArm -13.949569 0.000000 2.929694
RightHand 7.481318 -0.000000 -3.209948
RightHandThumb1 -24.326973 -0.000000 -32.862282
LeftUpLeg -16.292960 -10.783439 -2.695501
LeftLeg 10.496601 -0.000000 -0.000000
LeftFoot -0.507598 4.592572 -6.138211
LeftToeBase -14.476274 -0.000000 0.000000
RightUpLeg -19.973457 -4.895910 0.419164
RightLeg 42.510235 -0.000000 -0.000000
RightFoot -15.500427 -13.890980 18.739646
RightToeBase -12.348197 -0.000000 0.000000
1097
root 4.525881 33.017421 4.366281 11.269721 -28.298931 -361.852836
Spine -12.493054 1.541695 -0.962971
Head 12.305648 0.027097 -0.793777
LeftShoulder -24.454285 42.557821 15.723558
LeftArm 59.210790 -48.806807 -77.497227
LeftForeArm 6.575414 -0.000000 -1.241134
LeftHand 5.611199 -0.000000 9.126721
LeftHandThumb1 -26.253704 0.000000 33.147579
RightShoulder -5.628672 2.763264 -27.538713
RightArm 17.376879 9.403096 54.056372
RightForeArm -14.061474 -0.000000 2.967854
RightHand 7.524240 0.000000 -3.310114
RightHandThumb1 -24.326973 -0.000000 -32.862282
LeftUpLeg -16.203434 -11.469824 -2.211814
LeftLeg 10.192431 -0.000000 -0.000000
LeftFoot -0.225868 4.225742 -6.367608
LeftToeBase -14.650153 -0.000000 0.000000
RightUpLeg -19.755640 -4.389693 -0.157011
RightLeg 40.299154 -0.000000 -0.000000
RightFoot -16.041706 -15.687636 18.546149
RightToeBase -11.822871 -0.000000 0.000000
